<svg xmlns="http://www.w3.org/2000/svg" xmlns:xlink="http://www.w3.org/1999/xlink" preserveAspectRatio="xMidYMid meet" version="1.0" viewBox="-0.6 -0.0 370.4 463.5" zoomAndPan="magnify" style="fill: rgb(0, 0, 0);" role="img" aria-label="Indonesia Simplified Chibi Holiday Hampers Pack of Cookies"><g id="__id2088_sle56o1r4h"><path d="M364.267,90.027c-6.31-8.771-14.496-15.203-25.286-17.76c-2.579-0.611-5.277-0.931-7.709-1.911 c-4.33-1.744-8.819-1.919-13.354-2.194c-10.042-0.61-19.479,2.475-29.035,4.723c-6.05,1.423-11.632,4.222-17.261,6.812 c-0.134-0.27-0.454-0.627-0.375-0.798c1.718-3.694,4.503-6.715,6.208-10.498c1.682-3.73,4.455-6.971,6.773-10.41 c1.783-2.645,3.372-5.466,5.456-7.852c3.833-4.387,7.845-8.564,11.111-13.466c3.249-4.878,6.448-9.738,8.843-15.093 c1.771-3.959,2.661-7.939,0.69-12.166c-0.604-1.294-1.166-2.406-2.624-2.715c-3.23-0.683-6.449-1.722-9.711-1.892 c-8.71-0.455-17.441-0.511-26.162-0.76c-6.647-0.19-13.294-0.398-19.938-0.685c-1.181-0.051-2.473-0.289-3.492-0.846 c-3.338-1.825-7.072-2.297-10.603-2.08c-3.774,0.232-7.559,1.488-11.176,2.762c-3.962,1.395-7.687,3.455-11.614,4.966 c-2.236,0.86-4.766,1.92-6.996,1.624c-4.015-0.534-8.007-1.727-11-4.95c-1.036-1.115-2.455-1.878-3.715-2.779 c-2.785-1.991-5.948-2.099-9.228-2.05c-5.442,0.082-10.818,0.398-16.05,2.085c-5.632,1.816-10.538,5.032-15.67,7.832 c-2.199,1.2-4.592,2.254-7.025,2.771c-6.851,1.457-13.623,0.899-20.197-1.631c-0.409-0.157-0.85-0.256-1.286-0.311 c-3.724-0.468-7.487-0.723-11.165-1.427c-4.3-0.823-8.772-1.129-12.489-4.018c-2.374-1.845-5.072-0.768-7.539,0.092 c-0.671,0.234-1.158,1.223-1.562,1.958c-1.413,2.571-1.241,5.254-0.639,8.044c0.907,4.198,1.291,8.53,2.456,12.648 c1.891,6.684,5.054,12.965,6.278,19.89c0.633,3.583,1.825,7.064,2.578,10.631c1.024,4.847,1.812,9.744,2.804,14.599 c1.316,6.441,4.51,11.98,8.4,17.186c2.579,3.452,5.035,6.995,7.547,10.497c-2.994-0.695-6.012-1.303-8.979-2.101 c-11.457-3.084-22.913-5.903-34.866-6.651c-10.662-0.667-21.156-0.36-31.712,1.302c-12.16,1.914-22.841,6.745-32.361,14.448 c-5.539,4.482-8.746,10.491-11.514,16.816c-0.521,1.192-0.742,2.558-0.88,3.868c-0.793,7.547,0.916,14.768,3.056,21.907 c0.307,1.025,1.056,1.958,1.738,2.825c3.278,4.162,6.499,8.376,9.952,12.389c2.002,2.327,4.147,4.697,6.678,6.365 c4.986,3.286,10.631,5.364,16.182,7.523c4.21,1.638,8.495,3.14,12.846,4.345c4.145,1.148,8.388,2.162,12.769,1.597 c4.386-0.566,8.781-1.107,13.134-1.878c4.149-0.735,8.325-1.496,12.349-2.709c5.507-1.661,10.88-3.766,16.313-5.671 c5.545-1.945,11.095-3.878,16.643-5.816c-0.009,0.284-0.017,0.568-0.026,0.853c-5.278,4.885-10.56,9.766-15.833,14.658 c-3.658,3.393-7.443,6.664-10.925,10.23c-7.277,7.453-14.401,15.055-21.569,22.614c-3.737,3.941-7.572,7.802-11.108,11.917 c-2.873,3.343-5.424,6.971-8.019,10.544c-5.399,7.435-11.182,14.613-15.667,22.672c-1.773,3.185-3.475,6.45-3.843,10.178 c-0.043,0.44,0.17,1.046,0.485,1.333c0.21,0.191,0.843,0.034,1.226-0.119c0.267-0.107,0.415-0.487,0.645-0.716 c1.951-1.943,3.869-3.922,5.874-5.809c4.578-4.311,9.201-8.575,13.803-12.86c0.819-0.762,1.628-1.535,2.442-2.303 c0.232,0.158,0.463,0.317,0.695,0.475c-1.167,2.942-2.037,6.049-3.561,8.792c-3.375,6.076-6.2,12.29-6.988,19.276 c-0.472,0.682-1.156,1.301-1.379,2.056c-1.758,5.937-3.541,11.871-5.083,17.865c-0.878,3.413-1.855,6.939-1.847,10.413 c0.018,7.625-0.806,15.248-0.131,22.872c0.478,5.394,0.425,10.906,1.581,16.151c1.568,7.121,1.543,14.48,3.706,21.491 c1.363,4.419,1.905,9.134,3.621,13.391c2.676,6.637,4.973,13.429,8.296,19.829c4.028,7.757,7.508,15.797,11.296,23.68 c1.605,3.34,3.691,6.413,7.204,7.959c2.914,1.283,5.185,3.317,7.485,5.378c0.661,0.592,1.247,1.321,2.004,1.746 c4.535,2.547,9.083,5.073,13.687,7.491c1.254,0.659,2.699,0.991,4.088,1.35c5.776,1.49,11.558,2.96,17.352,4.377 c1.713,0.419,3.486,0.961,5.211,0.898c9.32-0.341,18.554,0.784,27.818,1.404c3.273,0.219,6.545,0.525,9.822,0.616 c4.047,0.113,8.101,0.123,12.149,0.03c3.538-0.081,7.079-0.618,10.604-0.501c5.295,0.176,10.584,0.665,15.861,1.173 c5.783,0.556,11.542,1.354,17.324,1.912c3.854,0.372,7.732,0.732,11.596,0.706c7.096-0.047,14.19-0.356,21.284-0.603 c8.724-0.304,17.312-1.203,25.641-4.222c6.134-2.223,11.756-5.172,16.873-9.171c1.371-1.071,2.703-2.291,4.252-3.017 c5.95-2.785,10.528-7.278,14.554-12.2c2.47-3.02,3.92-6.877,5.809-10.369c0.788-1.457,1.426-3.004,2.309-4.398 c1.35-2.132,3.459-3.988,4.142-6.289c0.918-3.092,2.342-5.86,3.785-8.652c1.766-3.418,3.753-6.72,5.564-10.116 c1.248-2.341,2.649-4.659,3.481-7.154c3.017-9.051,6.955-17.709,11.025-26.304c2.173-4.589,3.164-9.411,3.764-14.359 c0.359-2.96,0.359-5.966,0.777-8.916c0.687-4.853,1.357-9.661-0.624-14.391c-0.204-0.486-0.09-1.1-0.144-1.653 c-0.454-4.619-0.736-9.263-1.427-13.846c-0.524-3.471-1.741-6.833-2.341-10.297c-0.663-3.826-2.794-6.958-4.339-10.372 c-2.329-5.147-4.662-10.293-6.924-15.47c-1.502-3.437-3.024-6.876-4.279-10.406c-1.375-3.866-3.154-7.502-5.262-11.004 c-1.644-2.73-3.15-5.545-4.857-8.235c-3.376-5.321-6.391-10.873-10.81-15.506c-3.049-3.197-5.702-6.772-8.546-10.165 c-2.916-3.479-5.918-6.89-8.753-10.433c-1.847-2.309-4.309-4.198-5.193-7.207c5.86,4.519,11.89,8.838,17.538,13.609 c7.01,5.922,13.639,12.292,20.562,18.322c3.902,3.398,8.057,6.506,12.11,9.731c1.039,0.826,2.04,1.752,3.202,2.359 c2.373,1.24,4.05,0.283,3.884-2.352c-0.1-1.59-0.709-3.238-1.44-4.681c-1.896-3.741-3.986-7.382-5.999-11.064 c-0.174-0.465-0.349-0.93-0.523-1.396c0.336,0.324,0.672,0.647,1.009,0.969c2.076,1.627,4.157,3.247,6.221,4.888 c1.215,0.966,2.377,2,3.622,2.923c0.297,0.221,0.917,0.284,1.227,0.118c0.228-0.122,0.357-0.791,0.245-1.121 c-0.494-1.461-0.97-2.95-1.671-4.317c-4.274-8.338-10.526-15.046-17.547-21.11c-5.863-5.063-11.618-10.257-17.619-15.15 c-3.848-3.138-7.916-6.058-12.132-8.679c-6.655-4.139-13.511-7.957-20.294-11.891c-9.318-5.403-19.087-9.817-29.266-13.335 c-2.147-0.742-4.26-1.582-6.572-2.445c0.463-0.338,0.635-0.569,0.78-0.554c4.719,0.503,9.428,1.109,14.153,1.534 c5.4,0.486,10.812,0.841,16.223,1.198c1.989,0.131,4-0.012,5.982,0.17c6.769,0.621,13.53,0.221,20.227-0.571 c5.657-0.67,11.207-2.196,16.844-3.088c6.226-0.985,12.027-3.321,17.655-5.857c6.163-2.778,11.675-6.831,16.564-11.573 c3.68-3.568,6.666-7.584,8.557-12.49c1.78-4.616,2.571-9.38,3.473-14.176C369.827,101.772,368.192,95.483,364.267,90.027z M110.968,155.319c-5.948,2.478-12.118,4.024-18.454,5.068c-2.282,0.376-4.489,1.185-6.755,1.682 c-3.346,0.734-6.701,1.45-10.08,2.002c-1.499,0.245-3.068,0.018-4.601,0.095c-7.607,0.382-15.231,1.907-22.79-0.422 c-4.552-1.402-9.172-2.615-13.644-4.238c-2.033-0.738-4.133-1.934-5.585-3.496c-2.98-3.205-6.366-6.065-8.548-10.016 c-3.222-5.836-4.757-11.909-3.536-18.548c0.412-2.242,2.008-3.718,3.647-5.003c1.459-1.143,3.156-2.047,4.861-2.801 c9.68-4.282,19.86-6.817,30.372-7.6c4.121-0.307,8.342,0.697,12.516,1.125c2.867,0.295,5.738,0.565,8.592,0.959 c3.494,0.481,6.992,0.982,10.454,1.648c7.391,1.422,14.766,2.929,22.136,4.456c3.119,0.646,6.206,1.446,9.314,2.149 c9.381,2.12,18.735,4.333,27.704,7.898l0,0h0c0.214,0.384,0.385,0.82,0.583,1.223c0.191,0.421,0.325,0.666,0.682,0.965 c3.257,2.721,6.603,5.335,9.919,7.985c-3.914,1.497-7.751,3.26-11.762,4.422c-4.739,1.373-9.625,2.244-14.453,3.304 C124.399,149.745,117.676,152.524,110.968,155.319z M346.093,118.018c-4.626,6.583-10.348,11.922-17.777,15.079 c-4.055,1.724-8.387,2.815-12.624,4.092c-8.359,2.519-16.916,3.576-25.63,3.028c-8.058-0.506-16.102-1.213-24.157-1.764 c-8.182-0.559-16.371-1.03-24.555-1.555c-0.881-0.056-1.755-0.211-2.633-0.321c-0.218,0.006-0.436,0.012-0.655,0.018 c-1.535,0.043-3.07,0.086-4.606,0.13c0,0,0,0,0,0c0.035-0.139,0.064-0.282,0.097-0.422c0.3-1.273,0.53-2.577,0.898-3.822 c0.136-0.461,0.292-0.913,0.479-1.352c0.89-2.092,2.3-3.958,3.297-6.013c0.551-1.135,0.717-2.456,1.057-3.693 c3.63-2.43,7.224-4.917,10.902-7.272c3.149-2.016,6.383-3.902,9.602-5.807c3.003-1.777,6.149-3.336,9.031-5.287 c5.248-3.552,11.063-5.904,16.8-8.448c2.39-1.059,4.704-2.293,7.115-3.297c2.786-1.16,5.636-2.171,8.469-3.216 c2.666-0.983,5.29-2.159,8.036-2.821c2.65-0.639,5.476-1.207,8.148-0.966c6.981,0.629,13.814,2.286,20.241,5.09 c3.749,1.636,6.709,4.436,8.071,8.559c0.899,2.722,1.988,5.384,2.824,8.123C349.863,110.466,348.665,114.358,346.093,118.018z" style="fill: rgb(255, 251, 246);"></path></g><g id="__id2089_sle56o1r4h"><path d="M291.516,198.682c-1.852-1.393-3.724-2.76-5.55-4.186c-2.326-1.815-4.492-3.864-6.946-5.48 c-4.684-3.084-9.418-6.126-14.328-8.828c-5.138-2.827-10.479-5.294-15.788-7.799c-2.296-1.083-4.711-1.935-7.115-2.767 c-4.157-1.439-8.359-2.646-12.008-5.354c-1.683-1.249-4.029-1.57-6.005-2.466c-4.529-2.055-9.049-4.137-13.503-6.346 c-2.006-0.995-3.504-0.71-5.063,0.841c-1.075,1.07-2.324,2.113-3.694,2.709c-3.882,1.686-7.508-0.05-11.137-1.232 c-0.618-0.201-1.177-0.588-1.761-0.892c-1.235-0.644-2.092-0.464-3.146,0.664c-1.629,1.741-3.586,3.188-5.481,4.66 c-0.579,0.45-1.439,0.867-2.121,0.799c-3.155-0.311-6.508-0.195-9.133-2.311c-1.17-0.943-1.683-0.463-2.442,0.265 c-6.246,5.981-12.432,12.028-18.775,17.904c-4.175,3.868-8.607,7.457-12.867,11.235c-1.742,1.545-3.362,3.231-4.988,4.902 c-2.645,2.717-5.291,5.414-8.267,7.794c-1.441,1.152-2.423,2.859-3.766,4.157c-5.653,5.46-11.02,11.149-15.766,17.451 c-2.629,3.491-5.936,6.464-8.777,9.805c-6.289,7.395-12.396,14.945-18.729,22.301c-5.982,6.948-12.164,13.724-18.245,20.588 c-1.32,1.49-2.535,3.073-3.886,4.532c-1.067,1.153-2.091,1.196-2.739-0.479c0.787-6.986,3.613-13.2,6.988-19.276 c1.524-2.744,2.394-5.85,3.561-8.792c-0.232-0.158-0.463-0.317-0.695-0.475c-0.814,0.768-1.623,1.54-2.442,2.303 c-4.602,4.285-9.225,8.549-13.803,12.86c-2.004,1.887-3.922,3.866-5.874,5.809c-0.23,0.229-0.378,0.609-0.645,0.716 c-0.383,0.153-1.016,0.31-1.226,0.119c-0.315-0.287-0.529-0.893-0.485-1.333c0.367-3.728,2.07-6.993,3.843-10.178 c4.485-8.059,10.269-15.237,15.667-22.672c2.595-3.574,5.146-7.201,8.019-10.544c3.537-4.115,7.371-7.976,11.108-11.917 c7.168-7.559,14.292-15.161,21.569-22.614c3.482-3.566,7.267-6.837,10.925-10.23c5.273-4.891,10.555-9.773,15.833-14.658 l0.026-0.853c-5.548,1.938-11.097,3.872-16.643,5.816c-5.434,1.905-10.806,4.01-16.313,5.671c-4.024,1.214-8.2,1.974-12.349,2.709 c-4.352,0.771-8.748,1.311-13.134,1.878c-4.38,0.566-8.624-0.449-12.769-1.597c-4.351-1.205-8.635-2.707-12.846-4.345 c-5.55-2.159-11.195-4.237-16.181-7.523c-2.531-1.668-4.676-4.038-6.678-6.365c-3.453-4.014-6.674-8.228-9.952-12.389 c-0.683-0.867-1.431-1.799-1.738-2.825c-2.14-7.139-3.85-14.36-3.056-21.907c0.138-1.309,0.358-2.676,0.88-3.868 c2.767-6.325,5.975-12.334,11.514-16.816c9.519-7.704,20.201-12.535,32.361-14.448c10.557-1.661,21.05-1.969,31.712-1.302 c11.954,0.748,23.409,3.567,34.866,6.651c2.967,0.799,5.985,1.406,8.979,2.101c5.662,2.186,11.328,4.361,16.982,6.566 c1.341,0.523,2.678,1.076,3.956,1.734c3.23,1.663,6.35,3.559,9.653,5.055c4.036,1.828,8.041,3.566,11.367,6.659 c2.367,2.201,2.525,2.029,5.362,0.106c0.457-0.31,0.897-0.655,1.385-0.908c2.601-1.351,5.037-3.165,8.32-1.804 c1.56,0.647,2.93,0.029,3.896-1.612c1.514-2.573,4.341-3.347,6.906-4.293c0.908-0.335,2.201,0.025,3.206,0.381 c1.743,0.618,3.453,1.382,5.074,2.273c1.22,0.671,2.277,1.636,3.407,2.47c-0.709,2.836-0.063,5.682-0.063,8.523 c-0.001,6.29-0.029,12.58,0.028,18.869c0.01,1.074,0.268,2.187,0.639,3.198c0.193,0.525,0.884,0.866,1.35,1.291 c0.472-0.523,1.097-0.975,1.376-1.586c0.359-0.785,0.568-1.689,0.62-2.555c0.276-4.626,0.615-9.254,0.674-13.885 c0.054-4.204-0.575-8.353-2.018-12.34c1.685-0.713,3.198-0.479,4.625,0.7c0.676,0.558,1.639,0.808,2.223,1.43 c1.33,1.418,2.171,0.757,3.216-0.366c2.55-2.741,5.214-5.377,7.801-8.084c6.544-6.846,14.244-12.226,22.161-17.294 c3.974-2.543,8.264-4.589,12.267-7.091c5.336-3.336,10.874-6.236,16.701-8.594c5.629-2.59,11.211-5.389,17.261-6.812 c9.556-2.247,18.993-5.333,29.035-4.723c4.535,0.275,9.024,0.45,13.354,2.194c2.432,0.979,5.13,1.299,7.709,1.911 c10.789,2.557,18.976,8.989,25.286,17.76c3.925,5.456,5.56,11.745,4.266,18.627c-0.902,4.796-1.693,9.56-3.473,14.176 c-1.891,4.906-4.878,8.922-8.557,12.49c-4.89,4.741-10.402,8.795-16.564,11.573c-5.628,2.537-11.429,4.872-17.655,5.857 c-5.638,0.892-11.188,2.418-16.844,3.088c-6.697,0.793-13.457,1.193-20.227,0.571c-1.982-0.182-3.993-0.039-5.982-0.17 c-5.411-0.357-10.823-0.712-16.223-1.198c-4.725-0.425-9.435-1.03-14.153-1.534c-0.145-0.016-0.317,0.216-0.78,0.554 c2.312,0.863,4.425,1.703,6.572,2.445c10.179,3.518,19.948,7.932,29.266,13.335c6.783,3.933,13.638,7.751,20.294,11.891 c4.216,2.622,8.284,5.542,12.132,8.679c6.001,4.893,11.756,10.087,17.619,15.15c7.021,6.063,13.273,12.772,17.547,21.11 c0.701,1.367,1.177,2.855,1.671,4.317c0.111,0.329-0.018,0.999-0.245,1.121c-0.31,0.166-0.93,0.102-1.227-0.118 c-1.245-0.924-2.407-1.958-3.622-2.923c-2.064-1.641-4.145-3.261-6.221-4.888c-0.338-0.322-0.673-0.645-1.009-0.969 c0.174,0.465,0.349,0.93,0.523,1.396c2.013,3.681,4.103,7.323,5.999,11.064c0.732,1.444,1.34,3.091,1.44,4.681 c0.166,2.635-1.512,3.592-3.884,2.352c-1.161-0.607-2.163-1.533-3.202-2.359c-4.053-3.224-8.208-6.332-12.11-9.73 c-6.922-6.029-13.551-12.4-20.562-18.321C303.406,207.521,297.377,203.202,291.516,198.682z M238.062,136.596 c0.218-0.006,0.436-0.012,0.655-0.018c0.877,0.109,1.752,0.264,2.633,0.321c8.185,0.525,16.373,0.996,24.555,1.555 c8.055,0.551,16.1,1.257,24.157,1.764c8.714,0.548,17.271-0.509,25.63-3.028c4.237-1.277,8.569-2.368,12.624-4.091 c7.429-3.158,13.151-8.497,17.777-15.079c2.572-3.66,3.77-7.552,2.433-11.935c-0.836-2.74-1.925-5.401-2.824-8.123 c-1.362-4.124-4.322-6.924-8.071-8.559c-6.427-2.804-13.26-4.461-20.241-5.09c-2.673-0.241-5.498,0.328-8.148,0.966 c-2.746,0.662-5.37,1.838-8.036,2.821c-2.833,1.045-5.683,2.056-8.469,3.216c-2.411,1.004-4.726,2.238-7.115,3.297 c-5.737,2.544-11.552,4.896-16.8,8.448c-2.883,1.951-6.028,3.51-9.031,5.287c-3.219,1.905-6.453,3.791-9.602,5.807 c-3.678,2.355-7.272,4.842-10.902,7.272c-3.573,1.926-7.434,3.246-10.734,5.774c-2.769,2.122-5.846,3.902-8.962,5.487 c-1.487,0.757-1.589,1.477-1.246,2.818c0.407,1.592,1.455,2.136,2.935,2.045c4.061-0.252,8.119-0.545,12.179-0.822 C234.992,136.683,236.527,136.64,238.062,136.596z M157.755,140.451c1.146-0.386,2.293-0.771,3.439-1.159 c2.053-0.696,1.807-2.622,2.042-4.153c0.25-1.626-1.307-1.818-2.405-2.238c-0.714-0.273-1.465-0.481-2.218-0.618 c-2.385-0.434-4.777-0.825-7.168-1.223c-1.623-0.27-3.249-0.522-4.873-0.782c-8.969-3.565-18.323-5.778-27.704-7.898 c-3.108-0.702-6.195-1.503-9.315-2.149c-7.37-1.527-14.745-3.035-22.136-4.456c-3.462-0.666-6.96-1.166-10.454-1.648 c-2.854-0.393-5.725-0.664-8.592-0.959c-4.173-0.429-8.395-1.432-12.516-1.125c-10.513,0.783-20.692,3.318-30.372,7.6 c-1.705,0.754-3.402,1.658-4.861,2.801c-1.639,1.285-3.234,2.761-3.647,5.003c-1.221,6.639,0.314,12.712,3.536,18.548 c2.181,3.951,5.568,6.811,8.547,10.016c1.452,1.562,3.552,2.759,5.585,3.496c4.472,1.622,9.092,2.835,13.644,4.238 c7.559,2.329,15.183,0.803,22.79,0.422c1.533-0.077,3.103,0.15,4.601-0.095c3.379-0.552,6.734-1.268,10.08-2.002 c2.266-0.497,4.473-1.306,6.755-1.682c6.336-1.044,12.507-2.59,18.454-5.068c6.708-2.795,13.431-5.574,20.571-7.142 c4.828-1.06,9.714-1.931,14.453-3.304C150.003,143.711,153.841,141.948,157.755,140.451z M183.73,141.427 c-0.58-5.033-0.969-10.1-1.841-15.082c-0.32-1.826-1.652-3.546-2.776-5.136c-0.691-0.977-1.514-0.614-1.747,0.625 c-0.081,0.431-0.075,0.885-0.06,1.326c0.23,6.851,0.372,13.707,0.767,20.549c0.112,1.944,0.899,3.866,1.506,5.757 c0.5,1.557,1.607,2.65,3.187,3.16c1.043,0.337,2.017-0.444,1.554-1.34C182.678,148.116,183.54,144.752,183.73,141.427z" style="fill: rgb(101, 61, 44);"></path></g><g id="__id2090_sle56o1r4h"><path d="M327.424,355.588c-0.945,2.465-1.993,4.891-2.997,7.332c-0.042-0.148-0.085-0.295-0.128-0.445 c0.043,0.15,0.085,0.298,0.128,0.445c-0.14,0.786-0.281,1.57-0.421,2.354c-0.434,2.921-0.83,5.848-1.332,8.757 c-0.1,0.577-0.605,1.083-0.923,1.622c-1.916,6.451-2.743,13.316-6.125,19.213c-2.68,4.673-5.414,9.435-9.523,13.129 c-5.196,4.67-10.27,9.484-15.624,13.965c-4.657,3.897-10.305,6.027-16.052,7.815c-0.727,0.226-1.53,0.318-2.294,0.297 c-3.839-0.106-7.483,0.786-11.104,1.94c-1.13,0.36-2.367,0.385-3.555,0.563c-2.37,0.906-4.808,1.667-7.097,2.745 c-8.293,3.908-17.013,5.383-26.12,4.928c-1.88-0.094-3.774-0.117-5.653-0.011c-7.1,0.403-13.505-2.049-19.86-4.726 c-3.156-1.329-6.406-2.49-9.415-4.099c-3.891-2.082-7.584-4.537-11.362-6.832c-5.184,1.103-10.488,1.434-15.661,2.746 c-3.6,0.913-7.436,0.891-11.164,1.309c-4.17,0.467-8.327,1.214-12.509,1.384c-6.86,0.279-12.719-2.332-17.66-7.054 c0.33-0.125,0.656-0.216,0.979-0.277l0,0c-0.323,0.061-0.649,0.152-0.98,0.277c-2.744-1.391-5.567-2.648-8.212-4.205 c-4.1-2.414-8.079-5.031-12.105-7.569c-0.28-0.177-0.575-0.366-0.784-0.615c-5.203-6.194-12.045-10.419-18.332-15.314 c-2.662-2.073-4.44-4.781-6-7.831c-2.765-5.403-5.885-10.65-9.209-15.731c-2.06-3.148-3.81-6.338-3.82-10.085 c-0.02-6.982,0.051-13.978,0.501-20.941c0.247-3.827,1.202-7.613,3.199-11.062c2.642-4.56,3.264-9.823,4.814-14.764 c0.557-1.774,1.134-3.553,1.516-5.369c1.23-5.842,2.225-11.738,3.614-17.54c0.714-2.982,1.814-5.941,3.204-8.675 c1.898-3.734,4.239-7.244,6.39-10.85c0.392-2.427,1.909-4.176,3.531-5.862c1.379-9.15,4.162-17.856,8.284-26.138 c0.944-5.032,3.823-8.922,7.508-12.229c2.217-1.99,4.672-3.727,7.102-5.463c6.967-4.981,13.26-10.657,18.59-17.394 c1.218-1.54,2.712-2.885,4.2-4.182c1.246-1.085,2.731-1.892,4-2.954c3.882-3.247,8.424-5.26,13.074-7.05 c0.987-0.38,2.157-0.284,3.243-0.408c5.814-2.472,11.803-4.529,18.032-5.444c3.548-0.521,7.263,0.089,10.902,0.205 c0.995,0.032,1.989,0.181,2.982,0.167c6.358-0.089,12.641,0.568,18.813,2.068c2.572,0.625,5.221,1.276,7.556,2.465 c7.107,3.618,14.621,6.534,20.86,11.727c0.382,0.318,0.874,0.504,1.396,0.654c0.522,0.15,1.073,0.265,1.574,0.441c0,0,0,0,0,0 c0.109-0.019,0.226-0.073,0.327-0.053c5.923,1.188,11.89,2.238,17.224,5.323c1.344,0.778,2.615,1.707,4.015,2.36 c4.211,1.965,7.625,4.869,10.455,8.51c0.246,0.188,0.491,0.376,0.737,0.564c0,0,0.001-0.012,0.001-0.012 c0.124,0.247,0.248,0.494,0.373,0.744c-0.125-0.25-0.249-0.497-0.373-0.744c4.359,1.833,8.007,4.742,11.401,7.918 c7.068,6.614,13.318,13.953,18.907,21.868c2.295,3.251,4.989,6.223,7.233,9.505c2.813,4.115,5.433,8.368,7.973,12.659 c1.511,2.552,2.709,5.29,4.048,7.945c0-0.001,0.007,0.091,0.006,0.093c0.156,0.279,0.314,0.557,0.472,0.836 c0.057,0.095,0.092,0.217,0.174,0.282c3.515,2.796,3.24,6.435,2.253,10.214c-0.335,1.283-0.748,2.547-1.153,3.811 c-0.554,1.731-0.348,3.37-0.051,5.179c0.532,3.242,0.412,6.591,0.564,9.895c0.062,3.525,0.509,7.097,0.088,10.564 c-0.528,4.356,0.646,8.282,1.818,12.299c1.419,4.865,2.9,9.718,4.11,14.637C328.662,350.122,328.44,352.936,327.424,355.588z" style="fill: rgb(190, 121, 90);"></path></g><g id="__id2091_sle56o1r4h"><path d="M236.719,410.779c0.005-0.005,0.01-0.01,0.014-0.015c0.01-0.003,0.021-0.006,0.031-0.008L236.719,410.779z M273.6,390.616c2.006-1.302,3.972-2.664,5.956-3.999c1.866-3.735,5.282-6.079,8.112-8.94c0.379-0.384,1.242-0.289,1.881-0.416 c-0.838-0.963-0.619-1.78,0.296-2.562c0.919-0.785,1.943-1.51,2.66-2.458c3.332-4.398,6.6-8.845,9.83-13.318 c0.962-1.333,1.813-2.764,2.566-4.226c3.232-6.274,6.347-12.609,9.623-18.86c2.795-5.333,4.986-10.84,5.865-16.836 c0.445-3.04,1.054-6.057,1.588-9.084c-0.152-3.304-0.032-6.653-0.564-9.895c-0.297-1.809-0.503-3.448,0.051-5.179 c0.405-1.264,0.817-2.528,1.153-3.811c0.988-3.779,1.262-7.418-2.253-10.214c-0.081-0.065-0.117-0.187-0.173-0.282 c-0.158-0.278-0.316-0.556-0.472-0.836c0.001-0.001-0.006-0.093-0.006-0.093c-1.557,0.476-1.632,1.485-1.21,2.875 c1.317,4.337,1.634,8.667-0.025,13.047c-0.407,1.075-0.443,2.502-0.104,3.598c0.497,1.606,0.242,3.017-0.117,4.548 c-0.554,2.363-0.901,4.775-1.407,7.151c-1.036,4.863-1.754,9.822-3.908,14.371c-1.374,2.901-2.859,5.752-4.361,8.59 c-2.331,4.404-4.547,8.883-7.13,13.137c-2.575,4.241-5.506,8.269-8.35,12.343c-1.888,2.704-3.765,5.435-5.884,7.955 c-2.984,3.548-6.148,6.949-9.312,10.34c-2.032,2.177-3.888,4.769-6.38,6.212c-4.421,2.559-7.856,6.36-12.495,8.709 c-5.584,2.829-10.54,6.791-16.626,8.851c-4.7,1.591-9.117,4.004-13.709,5.936c-0.898,0.378-2.021,0.223-3.04,0.314 c0.499-0.955,0.971-1.926,1.513-2.855c0.154-0.264,0.502-0.424,0.777-0.609c3.959-2.654,7.956-5.253,11.859-7.987 c1.147-0.804,2.09-1.934,3.016-3.009c0.934-1.085,1.7-2.312,2.593-3.435c3.585-4.504,7.373-8.862,10.723-13.534 c2.119-2.956,3.462-6.456,5.384-9.569c6.423-10.409,10.057-21.914,13.426-33.535c0.638-2.2,1.292-4.396,1.939-6.593 c-0.709-4.627-1.331-9.255-0.108-13.897c-1.584,0.026-1.957-1.231-2.455-2.338c-0.774-1.718-1.5-3.458-2.298-5.164 c-2.042-4.366-3.499-8.848-3.264-13.77c0.068-1.413,0.035-2.962-0.47-4.245c-1.576-4.01-3.316-7.962-5.146-11.865 c-2.784-5.936-7.666-10.282-11.902-15.083c-1.947-2.206-4.683-3.695-6.872-5.713c-5.422-5-11.572-8.822-18.263-11.851 c-0.6-0.272-1.006-0.974-1.501-1.477c-1.717,0.311-3.221-0.222-4.741-0.997c-4.013-2.049-7.964-4.258-12.497-5.059 c-1.315-0.232-2.164-1.055-2.028-2.55c-1.194,1.582-2.767,1.581-4.465,1.074c-1.168-0.349-2.322-0.903-3.511-0.996 c-4.305-0.334-8.62-0.558-12.935-0.739c-9.902-0.415-19.643,1.073-29.384,2.56c-0.649,0.099-1.343-0.1-2.579-0.211 c1.124-0.863,1.694-1.365,2.325-1.774c5.303-3.431,10.602-6.869,15.935-10.254c2.629-1.669,5.397-2.786,8.617-3.122 c5.403-0.564,10.809-1.688,15.629-4.24c5.867-3.107,12.051-4.215,18.546-4.383c1.758-0.046,3.507-0.375,5.265-0.517 c3.306-0.268,6.615-0.669,9.924-0.687c3.199-0.018,6.399,0.522,9.601,0.553c4.332,0.041,8.666-0.262,12.672,1.94 c1.141,0.627,2.403,1.092,3.662,1.439c4.863,1.342,8.679,4.128,11.962,7.922c1.293,1.494,3.147,2.631,5.738,3.072 c-0.871-1.737-1.532-3.054-2.192-4.372c0,0-0.001,0.012-0.001,0.012c-0.246-0.188-0.491-0.376-0.737-0.564 c-2.83-3.642-6.244-6.545-10.455-8.51c-1.4-0.654-2.671-1.583-4.015-2.36c-5.335-3.086-11.302-4.136-17.224-5.323 c-0.101-0.02-0.218,0.034-0.327,0.053c-1.651,0.936-3.312,1.542-5.281,0.881c-0.798-0.268-1.831-0.3-2.625-0.039 c-6.005,1.968-12.21,1.641-18.391,1.941c-6.401,0.311-12.802,1.145-18.56,4.358c-4.143,2.312-8.749,3.187-13.281,4.053 c-5.212,0.996-9.846,2.776-14.026,6.15c-4.723,3.811-9.792,7.193-14.7,10.775c-0.624,0.455-1.3,0.905-1.764,1.503 c-2.145,2.763-5.015,3.819-8.408,3.831c-0.76,0.003-1.531,0.393-2.273,0.331c-0.359-0.03-0.664-0.696-0.994-1.074 c-0.208,0.25-0.368,0.63-0.633,0.731c-3.489,1.33-6.992,2.62-10.492,3.921c-1.979,1.554-3.959,3.106-5.937,4.661 c-0.608,0.477-1.274,0.899-1.806,1.45c-3.962,4.092-8.741,7.044-13.739,9.617c-4.275,2.201-8.149,4.866-11.599,8.22 c-0.989,0.962-2.393,1.496-3.606,2.227c-1.622,1.686-3.139,3.435-3.53,5.862c0.018,0.222,0.002,0.453,0.062,0.663 c0.169,0.596,0.37,1.183,0.558,1.773c0.484-0.361,1.21-0.62,1.411-1.099c0.913-2.182,2.652-3.475,4.514-4.746 c1.91-1.303,3.696-2.787,5.537-4.191c1.671-1.274,3.247-2.705,5.034-3.786c4.452-2.693,9.001-5.224,13.507-7.825 c0.383-0.221,0.741-0.484,1.113-0.724c3.9-2.523,7.698-5.228,11.739-7.502c2.477-1.394,5.249-2.585,8.026-3.059 c5.868-1.001,11.829-1.456,17.748-2.163c3.947-0.472,7.886-1.021,11.834-1.483c3.618-0.423,7.238-0.987,10.868-1.094 c3.19-0.094,6.394,0.415,9.597,0.555c5.09,0.222,10.133,0.688,15.075,2.033c4.054,1.103,8.137,2.082,11.707,4.459 c0.914,0.608,1.924,1.081,2.92,1.556c2.989,1.425,6.152,2.559,8.958,4.279c6.225,3.818,12.295,7.889,18.373,11.941 c1.182,0.788,2.161,1.91,3.143,2.963c1.738,1.862,3.52,3.7,5.075,5.709c1.959,2.531,3.834,5.148,5.507,7.874 c1.146,1.867,1.64,4.151,2.864,5.951c2.263,3.328,2.529,6.935,2.59,10.781c0.088,5.505,1.722,10.667,4.478,15.463 c2.831,4.926,3.428,10.287,2.438,15.748c-0.707,3.9-1.798,7.756-3.029,11.53c-1.613,4.945-3.234,9.928-5.395,14.646 c-2.865,6.253-6.248,12.269-9.43,18.375c-0.407,0.782-0.892,1.538-1.434,2.233c-4.086,5.233-8.137,10.494-12.327,15.642 c-1.515,1.862-3.339,3.481-5.088,5.143c-3.457,3.285-7.174,6.327-10.382,9.837c-2.971,3.251-6.199,5.648-10.396,7.22 c-7.692,2.882-15.671,4.576-23.579,6.586c-2.025,0.515-4.133,0.698-6.196,1.068c-3.696,0.662-7.38,1.394-11.084,2.011 c-2.5,0.416-5.027,0.677-7.539,1.022c-2.287,0.314-4.566,0.69-6.857,0.961c-2.961,0.35-5.945,0.525-8.893,0.954 c-3.167,0.46-6.285,1.412-9.459,1.627c-3.72,0.252-7.475,0.522-11.127-1.153c-2.195-1.007-4.594-2.228-7.234-1.224 c4.941,4.722,10.8,7.333,17.66,7.054c4.181-0.17,8.338-0.917,12.509-1.384c3.728-0.418,7.564-0.396,11.164-1.309 c5.173-1.313,10.477-1.644,15.661-2.746c3.679-1.08,7.309-2.39,11.048-3.186c5.908-1.257,11.884-2.197,17.84-3.216 c4.437-0.759,8.893-1.402,13.331-2.156c1.51-0.256,3.153-0.393,4.453-1.101c3.816-2.078,7.968-3.05,12.092-4.158 c0.219-0.23,0.439-0.46,0.659-0.689c4.329-2.715,9.05-4.407,14.049-5.369c2.694-1.672,5.405-3.317,8.079-5.022 C264.227,396.682,268.918,393.656,273.6,390.616z M323.87,360.975c-0.408,0.382-0.741,0.554-0.849,0.818 c-1.551,3.775-3.6,7.311-4.331,11.462c-0.609,3.457-2.277,6.721-2.985,10.171c-0.864,4.215-2.65,8.038-4.916,11.503 c-3.083,4.714-6.501,9.245-10.79,13.04c-3.82,3.381-7.451,6.976-11.175,10.466c-4.315,4.043-9.502,6.551-15.118,8.08 c-2.527,0.688-5.286,0.474-7.881,0.973c-3.363,0.646-6.838,1.318-8.35,5.09c1.188-0.178,2.425-0.203,3.555-0.563 c3.62-1.154,7.265-2.046,11.104-1.94c0.763,0.021,1.567-0.07,2.294-0.297c5.747-1.788,11.395-3.917,16.052-7.815 c5.354-4.481,10.428-9.295,15.624-13.965c4.11-3.694,6.843-8.456,9.523-13.129c3.382-5.897,4.21-12.762,6.125-19.213 c-0.537-2.111-0.212-4.194,0.74-6.047c0.722-1.404-0.542-3.458,1.515-4.333c0.141-0.784,0.281-1.569,0.421-2.354 C324.257,362.331,324.089,361.742,323.87,360.975z M100.244,238.349c1.698-2.306,3.298-4.818,5.459-6.621 c5.425-4.524,11.271-8.543,16.695-13.069c4.057-3.385,8.387-6.595,11.078-11.359c0.266-0.472,0.772-0.803,1.082-1.257 c1.521-2.234,4.043-2.986,6.219-4.25c3.541-2.059,7.103-4.083,10.621-6.181c1.516-0.904,2.987-1.897,4.396-2.959 c1.227-0.925,0.264-1.437-0.515-1.917c-1.086,0.124-2.256,0.028-3.243,0.408c-4.65,1.79-9.192,3.803-13.074,7.05 c-1.269,1.062-2.755,1.869-4,2.954c-1.488,1.296-2.982,2.642-4.2,4.181c-5.33,6.737-11.623,12.413-18.59,17.394 c-2.43,1.737-4.885,3.474-7.102,5.463c-3.685,3.307-6.564,7.197-7.508,12.229C99.091,240.535,99.509,239.347,100.244,238.349z M178.073,143.709c0.112,1.943,0.899,3.866,1.506,5.757c0.5,1.557,1.607,2.65,3.187,3.16c1.043,0.337,2.017-0.444,1.554-1.34 c-1.641-3.171-0.779-6.535-0.589-9.86c-0.58-5.033-0.969-10.1-1.841-15.082c-0.32-1.827-1.652-3.546-2.776-5.136 c-0.691-0.977-1.514-0.614-1.747,0.625c-0.081,0.431-0.075,0.885-0.06,1.326C177.536,130.012,177.678,136.868,178.073,143.709z M199.987,144.873c0.01,1.074,0.268,2.187,0.639,3.198c0.193,0.525,0.884,0.866,1.35,1.291c0.472-0.523,1.097-0.975,1.376-1.586 c0.359-0.785,0.568-1.689,0.62-2.555c0.276-4.626,0.615-9.254,0.674-13.885c0.054-4.204-0.575-8.353-2.018-12.34 c-0.578-1.005-1.386-1.614-2.606-1.514c-0.709,2.836-0.063,5.682-0.063,8.523C199.958,132.294,199.931,138.584,199.987,144.873z" style="fill: rgb(149, 89, 63);"></path></g><g id="__id2092_sle56o1r4h"><path d="M181.874,336.14c-3.304,1.162-4.911,4.006-7.128,6.276c-1.615,1.653-3.171,3.45-5.061,4.73 c-3.82,2.587-7.757,2.199-11.286-0.727c-0.767-0.636-1.493-1.32-2.258-1.959c-4.958-4.139-5.02-6.909-3.233-12.074 c1.397-4.037,2.153-7.993,2.451-12.262c0.475-6.79,5.571-10.443,11.771-8.49c7.509,2.366,13.66,6.8,16.663,14.542 c0.55,1.418,0.805,2.951,1.197,4.431C184.947,333.116,184.263,335.3,181.874,336.14z M122.074,308.677 c1.338-1.433,2.628-2.998,4.225-4.084c3.722-2.531,4.92-5.517,3.746-9.898c-0.932-3.478-2.812-6.282-5.782-8.233 c-2.74-1.8-5.595-2.777-9.027-1.349c-1.341,0.558-2.792,0.824-3.604,2.049c-1.568,2.364-3.563,4.196-6.003,5.598 c-0.37,0.213-0.722,0.552-0.942,0.917c-2.53,4.197-4.781,8.498-4.8,14.282c0.05,0.297,0.184,1.279,0.383,2.247 c1.089,5.307,5.798,7.976,10.65,5.545C114.836,313.789,118.967,312.005,122.074,308.677z M125.803,354.047 c-1.91-1.376-3.866-2.101-6.167-2.054c-2.69-0.106-5.538,0.724-6.869,2.665c-2.435,3.552-3.601,7.554-2.309,12.264 c0.947,3.453,4.262,5.281,4.83,8.79c0.101,0.624,1.256,1.379,2.033,1.536c2.518,0.508,3.332,2.163,3.735,4.438 c0.179,1.009,0.721,2.436,1.49,2.771c2.826,1.23,5.691,2.329,8.599-0.343c1.749-1.608,2.991-3.432,3.262-5.599 c0.476-3.802,0.522-7.661,0.663-11.498c0.023-0.62-0.389-1.256-0.606-1.883C132.846,360.446,129.798,356.926,125.803,354.047z M166.414,268.781c-0.116,1.956,0.018,3.66,0.631,5.467c0.672,1.984,1.03,4.073,1.681,6.065c0.296,0.906,0.767,2.015,1.506,2.474 c5.28,3.278,10.758,5.256,16.914,2.143c2.512-1.271,3.963-3.097,4.133-5.932c0.126-2.096,0.573-4.21,0.395-6.274 c-0.146-1.695-0.722-3.503-1.615-4.946c-1.154-1.866-2.771-3.458-4.267-5.097c-1.791-1.962-3.912-2.786-6.601-1.861 c-1.122,0.386-2.379,0.38-3.575,0.552C170.07,261.051,166.753,263.042,166.414,268.781z M223.883,350.223 c-1.965-1.763-3.984-3.322-6.633-4.137c-2.91-0.896-6.917,0.408-7.757,3.322c-0.83,2.882-2.516,5.049-4.361,7.302 c-2.449,2.99-4.508,6.308-4.412,10.446c0,0.443-0.018,0.888,0.003,1.33c0.145,3.11,0.711,3.645,3.824,4.283 c3.359,0.689,5.884-1.071,7.903-3.137c1.585-1.622,3.016-1.903,4.973-1.541c0.703,0.13,1.582,0.227,2.166-0.076 c2.912-1.51,5.591-3.471,6.127-6.918c0.484-3.11,0.467-6.328-0.547-9.397C224.981,351.127,224.37,350.66,223.883,350.223z M237.907,318.855c3.711,1.525,8.272-1.457,8.006-5.519c-0.306-4.668-1.267-9.302-4.444-12.961c-2.223-2.56-4.828-4.799-7.353-7.08 c-0.618-0.558-1.647-1.106-2.393-1c-3.446,0.491-8.115,3.35-7.668,7.698c0.02,1.721,2.963,9.176,4.155,10.299 c0.553,0.521,1.332,0.799,1.896,1.311c1.198,1.088,2.621,2.083,3.404,3.434C234.584,316.891,236.004,318.073,237.907,318.855z M194.116,390.735c-4.232,0.099-7.97,0.994-11.492,2.655c-0.62,0.293-1.146,1.226-1.302,1.953c-0.204,0.944,0.054,1.979,0.025,2.972 c-0.045,1.563,0.761,2.526,2.137,2.99c1.038,0.35,2.139,0.675,3.222,0.707c4.838,0.146,9.07-1.647,12.901-4.429 c1.589-1.154,1.522-3.49-0.056-4.864C197.922,391.299,196.081,390.332,194.116,390.735z M139.315,264.614 c-4.063,0.086-6.828,3.078-6.761,7.313c0.041,2.556,3.133,5.278,5.89,5.184c3.448-0.118,6.328-2.999,6.146-6.149 C144.42,268.017,141.553,264.566,139.315,264.614z M201.91,304.509c1.927,1.239,3.94,2.494,6.093,3.196 c2.8,0.913,5.31-1.259,5.399-4.858c0.172-2.76-2.289-4.753-4.119-7.059c-0.19-0.239-0.83-0.28-1.205-0.186 c-1.499,0.374-2.981,0.817-4.458,1.272C201.294,297.59,199.799,303.151,201.91,304.509z M162.265,363.973 c-3.079,0.338-4.939,2.082-4.915,5.016c0.022,2.697,2.288,4.956,4.908,4.893c2.065-0.049,4.309-2.081,4.247-3.846 C166.234,366.859,163.902,363.793,162.265,363.973z M254.545,230.471c-0.708,0.095-1.617,0.326-2.014,0.826 c-2.507,3.152-2.226,5.819,0.765,8.73c0.398,0.388,0.796,0.776,1.205,1.152c1.331,1.22,2.332,2.481,2.367,4.516 c0.033,1.958,2.979,4.521,4.687,4.55c3.424,0.058,5.779-1.366,6.41-4.011c0.229-0.96,0.167-1.988,0.238-2.985 C268.691,236.962,262.816,229.355,254.545,230.471z M280.867,327.12c3.352,0.008,6.33-1.018,7.035-4.567 c0.453-2.281,0.344-5.014-0.511-7.144c-1.864-4.645-3.108-4.665-7.807-3.882c-0.965,0.161-1.871,0.678-2.804,1.031 c-1.223,4.642-0.601,9.27,0.108,13.897c0.967,1.249,2.118,0.252,3.187,0.261C280.34,326.852,280.603,326.986,280.867,327.12z M280.957,269.565c2.144,1.01,5.644,0.743,6.869-0.471c1.367-1.354,1.41-4.45,0.063-6.891c-0.527-0.955-1.16-1.853-1.683-2.81 c-1.161-2.122-2.782-3.512-5.979-3.616c-1.689-0.457-2.929,0.872-3.731,2.766C274.533,263.172,275.313,266.906,280.957,269.565z M207.372,234.997c4.533,0.801,8.484,3.01,12.497,5.059c1.52,0.776,3.024,1.308,4.741,0.997c0.121-1.369,0.84-3.139,0.245-4.028 c-1.432-2.14-3.174-4.441-5.361-5.613c-2.529-1.355-5.651-1.657-8.549-2.252c-2.762-0.567-4.734,0.486-5.6,3.287 C205.208,233.942,206.057,234.765,207.372,234.997z M237.392,410.074c-0.224,0.235-0.448,0.469-0.673,0.704 c0,0,0.046-0.023,0.045-0.023c-0.401,1.018-1.13,2.039-1.122,3.054c0.011,1.43-2.324,2.326-0.912,3.838 c1.037,1.11,2.259,2.349,3.632,2.771c2.045,0.629,4.388,1.057,6.292-0.603c1.892-1.649,3.77-3.333,5.489-5.157 c3.303-3.505,3.522-5.634,1.298-9.952C246.442,405.667,241.721,407.359,237.392,410.074z M289.55,377.26 c-0.639,0.127-1.502,0.033-1.881,0.416c-2.83,2.862-6.246,5.205-8.112,8.94c0.152,0.528,0.357,1.048,0.449,1.586 c0.685,4.022,1.898,5.135,5.784,5.192c1.323,0.019,2.654,0.034,3.968-0.088c2.398-0.221,4.572-2.182,4.36-4.524 C293.735,384.557,293.512,380.126,289.55,377.26z M310.138,368.791c-2.499-1.754-4.046-1.573-6.891,0.324 c-1.16,0.773-2.543,1.775-2.002,3.037c0.578,1.348,0.709,3.152,2.698,3.846c3.557,1.241,7.268-1.013,7.496-5.452 C311.207,370.22,310.832,369.278,310.138,368.791z M137.091,235.729c-0.148-0.857-0.244-1.727-0.456-2.568 c-0.383-1.52-1.272-2.664-2.934-2.669c-2.256-0.008-4.689-0.722-6.6,1.172c-0.281,0.278-0.432,0.778-0.473,1.192 c-0.248,2.506-0.447,5.016-0.663,7.525c3.5-1.3,7.003-2.591,10.492-3.921C136.722,236.358,136.881,235.979,137.091,235.729z M161.208,211.71c0.434,0.067,0.881,0.053,1.322,0.077c0.061,0.137,0.121,0.275,0.182,0.412c1.9-0.795,3.886-1.435,5.673-2.431 c1.666-0.928,2-3.33,0.983-4.958c-1.776-2.842-2.883-3.281-6.309-2.49c-0.748,0.173-1.498,0.345-2.236,0.557 c-2.393,0.686-4.355,3.314-4.189,5.584C156.729,209.767,158.957,211.361,161.208,211.71z" style="fill: rgb(101, 61, 44);"></path></g></svg>